M48
;GenerationSoftware,Autodesk,EAGLE,9.6.2*%
;CreationDate,2023-04-26T13:35:21Z*%
FMAT,2
ICI,OFF
METRIC,TZ,000.000
T3C0.300
T2C0.800
T1C1.000
%
G90
M71
T1
X2540Y8000
X0Y8000
X-2540Y8000
T2
X-6000Y10900
X-5500Y6600
X-5500Y8600
X5500Y6600
X5500Y8600
X0Y10900
X2000Y10900
X4000Y10900
X6000Y10900
X-2000Y10900
X-4000Y10900
T3
X3150Y3000
X-5075Y-1675
X-4650Y1850
X-600Y900
X175Y925
X4075Y4600
X-2850Y3625
X1875Y250
X1875Y860
X1700Y6950
X-2600Y-675
X2325Y-1525
X3275Y1250
X4300Y2950
X-3250Y2200
X1225Y3325
X900Y6975
X-2450Y6625
X-1450Y6975
X-3250Y6875
X-25Y3325
X-5925Y-1675
X3625Y6325
X-2250Y3625
M30