M48
;GenerationSoftware,Autodesk,EAGLE,9.6.2*%
;CreationDate,2023-04-26T13:34:42Z*%
FMAT,2
ICI,OFF
METRIC,TZ,000.000
T2C0.300
T1C0.800
%
G90
M71
T1
X14000Y9000
X14000Y7000
X7000Y13500
X9000Y13500
X11000Y13500
X13000Y13500
X5000Y13500
X3000Y13500
X1000Y13500
X-1000Y13500
X-3000Y13500
X-5000Y13500
X-7000Y13500
X-9000Y13500
X-17200Y-5000
X-11000Y13500
X-13000Y13500
X-14000Y11000
X-14000Y9000
X-14000Y7000
X-14000Y-1000
X-14000Y-3000
X-14000Y-5000
X-14000Y-7000
X-13000Y-9500
X-11000Y-9500
X-9000Y-9500
X-5000Y-9500
X-3000Y-9500
X-1000Y-9500
X1000Y-9500
X3000Y-9500
X5000Y-9500
X7000Y-9500
X9000Y-9500
X11000Y-9500
X13000Y-9500
X14000Y-7000
X14000Y-5000
X14000Y-3000
X14000Y-1000
X17200Y-3000
X17200Y-5000
X17200Y-7000
X17200Y-9000
X17200Y-1000
X17200Y1000
X17200Y3000
X17200Y5000
X17200Y7000
X17200Y9000
X-17200Y3000
X-17200Y5000
X-17200Y7000
X-17200Y9000
X-17200Y1000
X-17200Y-1000
X-17200Y-3000
X-7000Y-9500
X-17200Y-7000
X-17200Y-9000
X-5500Y-16500
X-5500Y-14500
X5500Y-14500
X5500Y-16500
X0Y-12200
X-2000Y-12200
X-4000Y-12200
X-6000Y-12200
X2000Y-12200
X4000Y-12200
X6000Y-12200
X14464Y-12271
X15878Y-10857
X14000Y11000
T2
X2200Y11600
X-14175Y950
X-11725Y-7675
X9800Y5125
X11450Y5125
X13450Y5150
X10900Y11950
X9500Y11950
X12275Y12375
X-15700Y6675
X-15350Y10900
X-11775Y12000
X-13175Y-2000
X-15700Y-7750
X-12625Y8750
X-9275Y11650
X-15500Y3250
X-7050Y10450
X-6275Y11800
X10950Y-6075
X12500Y-400
X5250Y-7650
X650Y-7750
X4700Y11400
X8200Y10750
X6100Y8150
X1275Y10375
X9850Y850
X10775Y2375
X12600Y2525
X11650Y-3000
X-15875Y-4675
X-9200Y9700
X8000Y8550
X-7375Y9525
X-6014Y8689
X6900Y7250
X6900Y7850
X10200Y-7300
X11900Y-8200
X15725Y-9325
M30