M48
;GenerationSoftware,Autodesk,EAGLE,9.6.2*%
;CreationDate,2023-04-26T13:33:47Z*%
FMAT,2
ICI,OFF
METRIC,TZ,000.000
T6C0.200
T5C0.300
T4C0.800
T3C1.000
T2C1.700
T1C2.000
%
G90
M71
T1
X5000Y18000
X-5000Y18000
X0Y18000
T2
X2500Y-11250
X-2500Y-11250
T3
X5500Y-21250
X-5500Y-21250
T4
X11350Y-14400
X-17200Y-9000
X-17200Y-3000
X-17200Y-5000
X-17200Y-7000
X-17200Y-1000
X-17200Y1000
X-17200Y3000
X-17200Y5000
X-17200Y7000
X-17200Y9000
X17200Y-3000
X17200Y-5000
X17200Y-7000
X17200Y-9000
X17200Y-1000
X17200Y1000
X17200Y3000
X17200Y5000
X17200Y7000
X17200Y9000
X14750Y-1250
X14750Y1250
X-11350Y-14400
X-8850Y-14400
X-14750Y1250
X-14750Y-1250
X-14750Y-5500
X-14750Y-8000
X14750Y-8000
X14750Y-5500
X8850Y-14400
T5
X9925Y12675
X9925Y12075
X9925Y11475
X9925Y10875
X9925Y10275
X9925Y9675
X9925Y9075
X-1900Y4500
X-1300Y4500
X-700Y4500
X1850Y4500
X2450Y4500
X3050Y4500
X3650Y9800
X3650Y9200
X3750Y8600
X3150Y8600
X3050Y9200
X3050Y9800
X3800Y8000
X3200Y8000
X7200Y13300
X7800Y13300
X8400Y13300
X7200Y12500
X7800Y12500
X8400Y12500
X7200Y11700
X7800Y11700
X8400Y11700
X7200Y10900
X7800Y10900
X8400Y10900
X3900Y5300
X13200Y5300
X5875Y7800
X10500Y8200
X-3350Y5300
X-12650Y5300
X-625Y7800
X6700Y2900
X1750Y7800
X4900Y2900
X675Y13400
X1275Y13400
X1875Y13400
X675Y12600
X1275Y12600
X1875Y12600
X675Y11800
X1275Y11800
X1875Y11800
X675Y11000
X1275Y11000
X-2850Y9800
X-2850Y9200
X-2850Y8600
X-3450Y8600
X-3450Y9200
X-3450Y9800
X-2850Y8000
X-3450Y8000
X5800Y2900
X1875Y11000
X-9350Y9800
X-9350Y9200
X-9350Y8600
X-9950Y8600
X-9950Y9200
X-9950Y9800
X-9350Y8000
X-9950Y8000
X-5800Y13500
X-5200Y13500
X-4600Y13500
X-5800Y12600
X5125Y12500
X-4600Y12600
X-5800Y11700
X-5200Y11700
X-4600Y11700
X-5800Y10800
X-5200Y10800
X-4600Y10800
X-15350Y5100
X13300Y6800
X13300Y6200
X13300Y4400
X13300Y3800
X13900Y6800
X13900Y6200
X13950Y5600
X13950Y5000
X13900Y4400
X13900Y3800
X-12900Y3800
X-12900Y4400
X-12900Y6200
X-12900Y6800
X-13500Y3800
X-13500Y4400
X-13500Y5000
X-13500Y5600
X-13500Y6200
X-13500Y6800
X150Y6825
X750Y6825
X150Y6225
X750Y6225
X150Y5625
X-400Y5625
X1350Y5625
X1950Y5625
X-11750Y16475
X-9650Y17725
X12750Y14000
X12750Y13000
X12750Y12000
X12750Y11000
X12750Y10000
X12750Y9000
X15000Y13000
X15000Y12000
X15000Y11000
X15000Y10000
X15000Y9000
X-6100Y2675
X-10650Y-1600
X-8450Y-2825
X7775Y925
X10875Y-2225
X13125Y-1500
X7775Y2950
X4275Y525
X9475Y-4775
X10175Y-3600
X-4875Y-1750
X5425Y-4900
X-14100Y-10850
X11550Y-9275
X1975Y-1325
X-2925Y500
X-3450Y2775
X-11775Y-800
X-8325Y2375
X-8250Y800
X-6625Y750
X-13000Y-1375
X-13000Y-4125
X-4600Y7800
X-4600Y2675
X-8375Y13500
X-7775Y13500
X-7175Y13500
X750Y5625
X-8375Y12600
X-7775Y12600
X-7175Y12600
X-8375Y11700
X-7775Y11700
X-7175Y11700
X-8375Y10800
X-5200Y12600
X-7775Y10800
X-7175Y10800
X-1875Y13400
X-1275Y13400
X-675Y13400
X-1875Y12600
X-1275Y12600
X-675Y12600
X-1875Y11800
X-1275Y11800
X-675Y11800
X-1875Y11000
X-1275Y11000
X-675Y11000
X4525Y13300
X5125Y13300
X5725Y13300
X4525Y12500
X5725Y12500
X4525Y11700
X5125Y11700
X5725Y11700
X4525Y10900
X5125Y10900
X5725Y10900
X9925Y13875
X9925Y13275
X5850Y750
T6
X-16350Y-100
M30